<svg width="25" height="22" fill="none" xmlns="http://www.w3.org/2000/svg"><path d="M12.498 20.116C18.852 20.116 24 14.946 24 8.567c0-2.179-.612-4.21-1.658-5.953l-.192.06c-2.727.967-5.066 3.714-6.578 7.728-1.069 2.839-1.996 4.715-3.102 6.27a8.354 8.354 0 01-1.809 1.87c-.31.257-.69.519-1.15.794l-.44.262c1.083.339 2.23.518 3.422.518h.005z" fill="#fff"/><path d="M14.48 3.792c-3.622 2.422-4.737 4.202-7.199 4.202-1.96 0-5.12-1.963-4.02-5.83.018-.064.005-.124-.05-.151a.12.12 0 00-.16.041A11.526 11.526 0 001 8.636c0 3.403 1.47 6.453 3.8 8.567a10.423 10.423 0 01-3.389 2.28c-.132.055-.128.247.01.293h-.005c2.128.652 4.66.514 6.637-.49 0 0 .014-.01.018-.01a9.418 9.418 0 001.75-1.133 8.126 8.126 0 001.763-1.82c1.01-1.413 2.079-3.596 3.284-6.733 1.668-4.307 4.12-6.417 6.597-7.508.073-.033.15-.065.228-.092.087-.032.064-.078 0-.092a5.278 5.278 0 00-.338-.041c-1.096-.096-3.86-.087-6.875 1.93v.005zM12.498 9.7c-.512 0-.928-.486-.928-1.087s.416-1.087.928-1.087c.511 0 .927.486.927 1.087 0 .6-.416 1.087-.927 1.087z" fill="#fff"/></svg>